<svg xmlns="http://www.w3.org/2000/svg" viewBox="0 0 200 200" width="100%" height="100%" class="w-full h-full text-indigo-400">
  <defs>
    <linearGradient id="grad5" x1="0%" y1="0%" x2="100%" y2="100%">
      <stop offset="0%" style="stop-color:#10b981;stop-opacity:1" />
      <stop offset="100%" style="stop-color:#3b82f6;stop-opacity:1" />
    </linearGradient>
    <radialGradient id="glow" cx="50%" cy="50%" r="50%">
      <stop offset="0%" style="stop-color:#10b981;stop-opacity:0.25" />
      <stop offset="100%" style="stop-color:#0b0f19;stop-opacity:0" />
    </radialGradient>
  </defs>
  <rect x="0" y="0" width="200" height="200" fill="#0f172a" rx="16"/>
  <circle cx="100" cy="100" r="75" fill="url(#glow)" />
  <!-- Cloud Node -->
  <path d="M 60 120 A 20 20 0 0 1 70 82 A 28 28 0 0 1 122 75 A 24 24 0 0 1 145 100 A 20 20 0 0 1 140 120 Z" fill="#1e293b" stroke="url(#grad5)" stroke-width="2.5" stroke-linejoin="round"/>
  <!-- Analytics nodes / connections inside cloud -->
  <circle cx="85" cy="105" r="4" fill="#3b82f6"/>
  <circle cx="102" cy="92" r="4" fill="#10b981"/>
  <circle cx="118" cy="108" r="4" fill="#60a5fa"/>
  <line x1="85" y1="105" x2="102" y2="92" stroke="#475569" stroke-width="1.5"/>
  <line x1="102" y1="92" x2="118" y2="108" stroke="#475569" stroke-width="1.5"/>
</svg>
